<svg xmlns="http://www.w3.org/2000/svg" viewBox="0 0 111.14 93.2"><defs><style>.cls-1{fill:#fff;}</style></defs><g id="Livello_2" data-name="Livello 2"><g id="Livello_1-2" data-name="Livello 1"><path class="cls-1" d="M55,89.22c-9.16,0-11.41-.59-11.67-.67L65.08,74.3l-.85,3.12v0l1.25,11s-.71.76-10.53.76M13.29,61.5l7.88-18.65,5.69-5.61,2.88,5.13L6.33,73.28Zm35.5-14.9L17.62,81.44l-5.51-2.73L38,45,49.1,16.1l7.95-7.65,1.62,12.86Zm7.4,3.66,7.26-19.41,4.92,8.23-9,13.34L47.15,72.86,31,86.19l-5.13-1.55Zm15,11.13-5.73,3.13,7.21-9.24,2.46,8.06Zm10.3-9L74,46.6,48.39,80.35l-6.55,2,8.42-6.9L62.55,55,73.12,39.34l7.66,6.86,8,18.34Zm17.12,4.46L77.27,15.68,74.76,21.5,60.1,0,45.68,13.7l-11,28.94L27.85,30.75,17.51,41.06,9.6,59.83,0,76S21.22,93.2,55.57,93.2,111.14,74,111.14,74Z"/></g></g></svg>