<svg xmlns="http://www.w3.org/2000/svg" viewBox="0 0 142 142"><defs><style>.cls-1{fill:#fff;}.cls-2{fill:#f9d85e;}.cls-3{fill:#ef7730;}</style></defs><g id="Livello_2" data-name="Livello 2"><g id="Layer_1" data-name="Layer 1"><circle cx="71" cy="71" r="71"/><circle class="cls-1" cx="71" cy="71" r="67"/><path class="cls-2" d="M76.3,85.8C50.2,74.1,33.9,50.4,33,26.6a1.18,1.18,0,0,0-2-.8,59.93,59.93,0,1,0,95.6,66.3,1.23,1.23,0,0,0-1.4-1.6C110.1,94.4,92.7,93.1,76.3,85.8Z"/><path class="cls-3" d="M129.5,60h0a.76.76,0,0,0-.1-.4h0a47,47,0,0,0-1.2-5.1c0-.1,0-.2-.1-.2h0c-.2-.8-.5-1.6-.7-2.4,0-.1,0-.1-.1-.2h0c-.6-1.7-1.2-3.3-1.9-4.8a.1.1,0,0,0-.1-.1h0a24,24,0,0,0-1.1-2.3h0v-.1c-.4-.8-.8-1.5-1.2-2.3h0V42h0c-.4-.8-.9-1.5-1.3-2.3v-.1h0a13.73,13.73,0,0,0-1.3-2h0l-.2-.2h0a39.07,39.07,0,0,0-3-4.1c-.1-.1-.1-.2-.2-.2h0c-.6-.7-1.1-1.4-1.7-2h0c-.6-.6-1.1-1.3-1.7-1.9a.1.1,0,0,1-.1-.1h0l-1.6-1.6h0c-.1-.1-.2-.1-.2-.2h0c-.6-.5-1.1-1.1-1.7-1.6l-.2-.2h0L108,24h0c-.1,0-.1-.1-.2-.1h0c-.7-.5-1.3-1-2-1.5h0l-2.1-1.5h0c-1.4-.9-2.9-1.8-4.4-2.7h0c-.1,0-.1-.1-.2-.1A15.05,15.05,0,0,0,96.9,17h0c.1,0,0-.1-.1-.1h0c-1.5-.7-3.1-1.4-4.7-2-.1,0-.2-.1-.3-.1h0c-.8-.3-1.7-.6-2.5-.9h-.1a21.72,21.72,0,0,0-2.4-.7c-.1,0-.1,0-.2-.1h0c-.8-.2-1.7-.5-2.6-.7h-.1a22.11,22.11,0,0,0-2.5-.5h-.2c-.9-.2-1.8-.3-2.6-.4h0a24,24,0,0,0-4-.6,6.37,6.37,0,0,1,.7.2h0c.6.1,1.1.1,1.6.2h0c.5.1,1,.1,1.5.2h0c.5.1.9.1,1.4.2h0a5.85,5.85,0,0,0,1.3.2h.1l1.2.3h.1c.4.1.8.2,1.1.3h.1l1.1.3h.1a4.18,4.18,0,0,1,1,.4c.1,0,.1,0,.2.1a3.55,3.55,0,0,1,.9.4c.1,0,.1.1.2.1.3.1.5.3.8.4.1,0,.1.1.2.1s.5.3.7.4l.2.2c.2.1.4.3.6.4s.2.1.3.2a2.18,2.18,0,0,1,.5.4l.3.3c.2.1.3.3.4.4l.4.4.3.3a5.72,5.72,0,0,1,.7.8,18.13,18.13,0,0,1,3,6.4c1.1,4.6.9,9.4,2,14,.2.8.4,1.5.6,2.3.1.2.1.4.2.6.2.6.3,1.1.5,1.7.1.2.1.3.2.5,5.4,17.4,16.2,25.7,30.7,36.7a59.89,59.89,0,0,0,.8-9.5A63.76,63.76,0,0,0,129.5,60Z"/><path class="cls-2" d="M129.9,62.5c-2.1-4.9-2.1-4.9-59-25.4C42.3,26.7,37,16.7,57.7,12.2l3-.6a62.43,62.43,0,0,1,9.7-.8,60,60,0,0,1,59.5,51.7"/></g></g></svg>